<?xml version="1.0" encoding="UTF-8"?>
<svg xmlns="http://www.w3.org/2000/svg" viewBox="0 0 200 200" width="192" height="192">
  <defs>
    <radialGradient id="bg-192" cx="50%" cy="50%">
      <stop offset="0%" style="stop-color:#1a0a2e;stop-opacity:1" />
      <stop offset="100%" style="stop-color:#0a0412;stop-opacity:1" />
    </radialGradient>
    <filter id="glow-192" x="-50%" y="-50%" width="200%" height="200%">
      <feGaussianBlur stdDeviation="1.5" result="coloredBlur"/>
      <feMerge>
        <feMergeNode in="coloredBlur"/>
        <feMergeNode in="SourceGraphic"/>
      </feMerge>
    </filter>
    <radialGradient id="ambient-192">
      <stop offset="0%" style="stop-color:#ff6b9d;stop-opacity:0.25" />
      <stop offset="100%" style="stop-color:#c2185b;stop-opacity:0" />
    </radialGradient>
  </defs>
  
  <rect width="200" height="200" fill="url(#bg-192)" rx="40"/>
  <circle cx="100" cy="100" r="80" fill="url(#ambient-192)"/>
  
  <g stroke="#ff6b9d" fill="none" strokeWidth="1" filter="url(#glow-192)">
    <circle cx="100" cy="100" r="95"/>
    <circle cx="100" cy="100" r="85"/>
    
    <!-- 12 outer petals (simplified) -->
    <path d="M100 15 C 95 22, 105 22, 100 15 Z" transform="rotate(0 100 100)"/>
    <path d="M100 15 C 95 22, 105 22, 100 15 Z" transform="rotate(30 100 100)"/>
    <path d="M100 15 C 95 22, 105 22, 100 15 Z" transform="rotate(60 100 100)"/>
    <path d="M100 15 C 95 22, 105 22, 100 15 Z" transform="rotate(90 100 100)"/>
    <path d="M100 15 C 95 22, 105 22, 100 15 Z" transform="rotate(120 100 100)"/>
    <path d="M100 15 C 95 22, 105 22, 100 15 Z" transform="rotate(150 100 100)"/>
    <path d="M100 15 C 95 22, 105 22, 100 15 Z" transform="rotate(180 100 100)"/>
    <path d="M100 15 C 95 22, 105 22, 100 15 Z" transform="rotate(210 100 100)"/>
    <path d="M100 15 C 95 22, 105 22, 100 15 Z" transform="rotate(240 100 100)"/>
    <path d="M100 15 C 95 22, 105 22, 100 15 Z" transform="rotate(270 100 100)"/>
    <path d="M100 15 C 95 22, 105 22, 100 15 Z" transform="rotate(300 100 100)"/>
    <path d="M100 15 C 95 22, 105 22, 100 15 Z" transform="rotate(330 100 100)"/>
    
    <!-- 12 main spokes -->
    <line x1="100" y1="56" x2="100" y2="20" strokeWidth="1.5" transform="rotate(0 100 100)"/>
    <line x1="100" y1="56" x2="100" y2="20" strokeWidth="1.5" transform="rotate(30 100 100)"/>
    <line x1="100" y1="56" x2="100" y2="20" strokeWidth="1.5" transform="rotate(60 100 100)"/>
    <line x1="100" y1="56" x2="100" y2="20" strokeWidth="1.5" transform="rotate(90 100 100)"/>
    <line x1="100" y1="56" x2="100" y2="20" strokeWidth="1.5" transform="rotate(120 100 100)"/>
    <line x1="100" y1="56" x2="100" y2="20" strokeWidth="1.5" transform="rotate(150 100 100)"/>
    <line x1="100" y1="56" x2="100" y2="20" strokeWidth="1.5" transform="rotate(180 100 100)"/>
    <line x1="100" y1="56" x2="100" y2="20" strokeWidth="1.5" transform="rotate(210 100 100)"/>
    <line x1="100" y1="56" x2="100" y2="20" strokeWidth="1.5" transform="rotate(240 100 100)"/>
    <line x1="100" y1="56" x2="100" y2="20" strokeWidth="1.5" transform="rotate(270 100 100)"/>
    <line x1="100" y1="56" x2="100" y2="20" strokeWidth="1.5" transform="rotate(300 100 100)"/>
    <line x1="100" y1="56" x2="100" y2="20" strokeWidth="1.5" transform="rotate(330 100 100)"/>
    
    <circle cx="100" cy="100" r="55"/>
    <circle cx="100" cy="100" r="28"/>
    <circle cx="100" cy="100" r="22"/>
    <circle cx="100" cy="100" r="15"/>
  </g>
</svg>
