<?xml version="1.0" encoding="UTF-8"?>
<svg xmlns="http://www.w3.org/2000/svg" viewBox="0 0 200 200" width="512" height="512">
  <defs>
    <!-- Dark cosmic background -->
    <radialGradient id="bg-dark" cx="50%" cy="50%">
      <stop offset="0%" style="stop-color:#1a0a2e;stop-opacity:1" />
      <stop offset="100%" style="stop-color:#0a0412;stop-opacity:1" />
    </radialGradient>
    
    <!-- Glow filter matching the component -->
    <filter id="chakra-glow" x="-50%" y="-50%" width="200%" height="200%">
      <feGaussianBlur stdDeviation="2" result="coloredBlur"/>
      <feMerge>
        <feMergeNode in="coloredBlur"/>
        <feMergeNode in="SourceGraphic"/>
      </feMerge>
    </filter>
    
    <!-- Ambient glow -->
    <radialGradient id="ambient-glow">
      <stop offset="0%" style="stop-color:#ff6b9d;stop-opacity:0.3" />
      <stop offset="100%" style="stop-color:#c2185b;stop-opacity:0" />
    </radialGradient>
  </defs>
  
  <!-- Background -->
  <rect width="200" height="200" fill="url(#bg-dark)" rx="40"/>
  
  <!-- Ambient glow behind chakra -->
  <circle cx="100" cy="100" r="85" fill="url(#ambient-glow)"/>
  
  <!-- Main Chakra (using text-primary color: #ff6b9d / pink-red) -->
  <g stroke="#ff6b9d" fill="none" strokeWidth="1" filter="url(#chakra-glow)">
    
    <!-- Outer rim with script -->
    <circle cx="100" cy="100" r="95"/>
    <circle cx="100" cy="100" r="85"/>
    
    <!-- Script placeholders (24 decorative marks) -->
    <g opacity="0.6">
      <path d="M100 5 Q 102 7, 100 9 M 98 6 L 102 8" transform="translate(0 -90) scale(0.5)" strokeWidth="2" transform="rotate(0 100 100)"/>
      <path d="M100 5 Q 102 7, 100 9 M 98 6 L 102 8" transform="translate(0 -90) scale(0.5)" strokeWidth="2" transform="rotate(15 100 100)"/>
      <path d="M100 5 Q 102 7, 100 9 M 98 6 L 102 8" transform="translate(0 -90) scale(0.5)" strokeWidth="2" transform="rotate(30 100 100)"/>
      <path d="M100 5 Q 102 7, 100 9 M 98 6 L 102 8" transform="translate(0 -90) scale(0.5)" strokeWidth="2" transform="rotate(45 100 100)"/>
      <path d="M100 5 Q 102 7, 100 9 M 98 6 L 102 8" transform="translate(0 -90) scale(0.5)" strokeWidth="2" transform="rotate(60 100 100)"/>
      <path d="M100 5 Q 102 7, 100 9 M 98 6 L 102 8" transform="translate(0 -90) scale(0.5)" strokeWidth="2" transform="rotate(75 100 100)"/>
      <path d="M100 5 Q 102 7, 100 9 M 98 6 L 102 8" transform="translate(0 -90) scale(0.5)" strokeWidth="2" transform="rotate(90 100 100)"/>
      <path d="M100 5 Q 102 7, 100 9 M 98 6 L 102 8" transform="translate(0 -90) scale(0.5)" strokeWidth="2" transform="rotate(105 100 100)"/>
      <path d="M100 5 Q 102 7, 100 9 M 98 6 L 102 8" transform="translate(0 -90) scale(0.5)" strokeWidth="2" transform="rotate(120 100 100)"/>
      <path d="M100 5 Q 102 7, 100 9 M 98 6 L 102 8" transform="translate(0 -90) scale(0.5)" strokeWidth="2" transform="rotate(135 100 100)"/>
      <path d="M100 5 Q 102 7, 100 9 M 98 6 L 102 8" transform="translate(0 -90) scale(0.5)" strokeWidth="2" transform="rotate(150 100 100)"/>
      <path d="M100 5 Q 102 7, 100 9 M 98 6 L 102 8" transform="translate(0 -90) scale(0.5)" strokeWidth="2" transform="rotate(165 100 100)"/>
      <path d="M100 5 Q 102 7, 100 9 M 98 6 L 102 8" transform="translate(0 -90) scale(0.5)" strokeWidth="2" transform="rotate(180 100 100)"/>
      <path d="M100 5 Q 102 7, 100 9 M 98 6 L 102 8" transform="translate(0 -90) scale(0.5)" strokeWidth="2" transform="rotate(195 100 100)"/>
      <path d="M100 5 Q 102 7, 100 9 M 98 6 L 102 8" transform="translate(0 -90) scale(0.5)" strokeWidth="2" transform="rotate(210 100 100)"/>
      <path d="M100 5 Q 102 7, 100 9 M 98 6 L 102 8" transform="translate(0 -90) scale(0.5)" strokeWidth="2" transform="rotate(225 100 100)"/>
      <path d="M100 5 Q 102 7, 100 9 M 98 6 L 102 8" transform="translate(0 -90) scale(0.5)" strokeWidth="2" transform="rotate(240 100 100)"/>
      <path d="M100 5 Q 102 7, 100 9 M 98 6 L 102 8" transform="translate(0 -90) scale(0.5)" strokeWidth="2" transform="rotate(255 100 100)"/>
      <path d="M100 5 Q 102 7, 100 9 M 98 6 L 102 8" transform="translate(0 -90) scale(0.5)" strokeWidth="2" transform="rotate(270 100 100)"/>
      <path d="M100 5 Q 102 7, 100 9 M 98 6 L 102 8" transform="translate(0 -90) scale(0.5)" strokeWidth="2" transform="rotate(285 100 100)"/>
      <path d="M100 5 Q 102 7, 100 9 M 98 6 L 102 8" transform="translate(0 -90) scale(0.5)" strokeWidth="2" transform="rotate(300 100 100)"/>
      <path d="M100 5 Q 102 7, 100 9 M 98 6 L 102 8" transform="translate(0 -90) scale(0.5)" strokeWidth="2" transform="rotate(315 100 100)"/>
      <path d="M100 5 Q 102 7, 100 9 M 98 6 L 102 8" transform="translate(0 -90) scale(0.5)" strokeWidth="2" transform="rotate(330 100 100)"/>
      <path d="M100 5 Q 102 7, 100 9 M 98 6 L 102 8" transform="translate(0 -90) scale(0.5)" strokeWidth="2" transform="rotate(345 100 100)"/>
    </g>
    
    <!-- 12 Outer pointed petals -->
    <g>
      <path d="M100 15 C 95 22, 105 22, 100 15 Z" transform="rotate(0 100 100)"/>
      <path d="M100 15 L 96 12 M100 15 L 104 12" transform="rotate(0 100 100)"/>
      
      <path d="M100 15 C 95 22, 105 22, 100 15 Z" transform="rotate(30 100 100)"/>
      <path d="M100 15 L 96 12 M100 15 L 104 12" transform="rotate(30 100 100)"/>
      
      <path d="M100 15 C 95 22, 105 22, 100 15 Z" transform="rotate(60 100 100)"/>
      <path d="M100 15 L 96 12 M100 15 L 104 12" transform="rotate(60 100 100)"/>
      
      <path d="M100 15 C 95 22, 105 22, 100 15 Z" transform="rotate(90 100 100)"/>
      <path d="M100 15 L 96 12 M100 15 L 104 12" transform="rotate(90 100 100)"/>
      
      <path d="M100 15 C 95 22, 105 22, 100 15 Z" transform="rotate(120 100 100)"/>
      <path d="M100 15 L 96 12 M100 15 L 104 12" transform="rotate(120 100 100)"/>
      
      <path d="M100 15 C 95 22, 105 22, 100 15 Z" transform="rotate(150 100 100)"/>
      <path d="M100 15 L 96 12 M100 15 L 104 12" transform="rotate(150 100 100)"/>
      
      <path d="M100 15 C 95 22, 105 22, 100 15 Z" transform="rotate(180 100 100)"/>
      <path d="M100 15 L 96 12 M100 15 L 104 12" transform="rotate(180 100 100)"/>
      
      <path d="M100 15 C 95 22, 105 22, 100 15 Z" transform="rotate(210 100 100)"/>
      <path d="M100 15 L 96 12 M100 15 L 104 12" transform="rotate(210 100 100)"/>
      
      <path d="M100 15 C 95 22, 105 22, 100 15 Z" transform="rotate(240 100 100)"/>
      <path d="M100 15 L 96 12 M100 15 L 104 12" transform="rotate(240 100 100)"/>
      
      <path d="M100 15 C 95 22, 105 22, 100 15 Z" transform="rotate(270 100 100)"/>
      <path d="M100 15 L 96 12 M100 15 L 104 12" transform="rotate(270 100 100)"/>
      
      <path d="M100 15 C 95 22, 105 22, 100 15 Z" transform="rotate(300 100 100)"/>
      <path d="M100 15 L 96 12 M100 15 L 104 12" transform="rotate(300 100 100)"/>
      
      <path d="M100 15 C 95 22, 105 22, 100 15 Z" transform="rotate(330 100 100)"/>
      <path d="M100 15 L 96 12 M100 15 L 104 12" transform="rotate(330 100 100)"/>
    </g>
    
    <!-- 12 Main spokes (blade arms) -->
    <g>
      <path d="M100,56 C 100,56 100,83 100,83" transform="rotate(0 100 100)"/>
      <path d="M100,83 C 96,83 95,80 95,78 L 95,58" transform="rotate(0 100 100)"/>
      <path d="M100,83 C 104,83 105,80 105,78 L 105,58" transform="rotate(0 100 100)"/>
      <path d="M95,70 C 97,72 103,72 105,70" transform="rotate(0 100 100)"/>
      
      <path d="M100,56 C 100,56 100,83 100,83" transform="rotate(30 100 100)"/>
      <path d="M100,83 C 96,83 95,80 95,78 L 95,58" transform="rotate(30 100 100)"/>
      <path d="M100,83 C 104,83 105,80 105,78 L 105,58" transform="rotate(30 100 100)"/>
      <path d="M95,70 C 97,72 103,72 105,70" transform="rotate(30 100 100)"/>
      
      <path d="M100,56 C 100,56 100,83 100,83" transform="rotate(60 100 100)"/>
      <path d="M100,83 C 96,83 95,80 95,78 L 95,58" transform="rotate(60 100 100)"/>
      <path d="M100,83 C 104,83 105,80 105,78 L 105,58" transform="rotate(60 100 100)"/>
      <path d="M95,70 C 97,72 103,72 105,70" transform="rotate(60 100 100)"/>
      
      <path d="M100,56 C 100,56 100,83 100,83" transform="rotate(90 100 100)"/>
      <path d="M100,83 C 96,83 95,80 95,78 L 95,58" transform="rotate(90 100 100)"/>
      <path d="M100,83 C 104,83 105,80 105,78 L 105,58" transform="rotate(90 100 100)"/>
      <path d="M95,70 C 97,72 103,72 105,70" transform="rotate(90 100 100)"/>
      
      <path d="M100,56 C 100,56 100,83 100,83" transform="rotate(120 100 100)"/>
      <path d="M100,83 C 96,83 95,80 95,78 L 95,58" transform="rotate(120 100 100)"/>
      <path d="M100,83 C 104,83 105,80 105,78 L 105,58" transform="rotate(120 100 100)"/>
      <path d="M95,70 C 97,72 103,72 105,70" transform="rotate(120 100 100)"/>
      
      <path d="M100,56 C 100,56 100,83 100,83" transform="rotate(150 100 100)"/>
      <path d="M100,83 C 96,83 95,80 95,78 L 95,58" transform="rotate(150 100 100)"/>
      <path d="M100,83 C 104,83 105,80 105,78 L 105,58" transform="rotate(150 100 100)"/>
      <path d="M95,70 C 97,72 103,72 105,70" transform="rotate(150 100 100)"/>
      
      <path d="M100,56 C 100,56 100,83 100,83" transform="rotate(180 100 100)"/>
      <path d="M100,83 C 96,83 95,80 95,78 L 95,58" transform="rotate(180 100 100)"/>
      <path d="M100,83 C 104,83 105,80 105,78 L 105,58" transform="rotate(180 100 100)"/>
      <path d="M95,70 C 97,72 103,72 105,70" transform="rotate(180 100 100)"/>
      
      <path d="M100,56 C 100,56 100,83 100,83" transform="rotate(210 100 100)"/>
      <path d="M100,83 C 96,83 95,80 95,78 L 95,58" transform="rotate(210 100 100)"/>
      <path d="M100,83 C 104,83 105,80 105,78 L 105,58" transform="rotate(210 100 100)"/>
      <path d="M95,70 C 97,72 103,72 105,70" transform="rotate(210 100 100)"/>
      
      <path d="M100,56 C 100,56 100,83 100,83" transform="rotate(240 100 100)"/>
      <path d="M100,83 C 96,83 95,80 95,78 L 95,58" transform="rotate(240 100 100)"/>
      <path d="M100,83 C 104,83 105,80 105,78 L 105,58" transform="rotate(240 100 100)"/>
      <path d="M95,70 C 97,72 103,72 105,70" transform="rotate(240 100 100)"/>
      
      <path d="M100,56 C 100,56 100,83 100,83" transform="rotate(270 100 100)"/>
      <path d="M100,83 C 96,83 95,80 95,78 L 95,58" transform="rotate(270 100 100)"/>
      <path d="M100,83 C 104,83 105,80 105,78 L 105,58" transform="rotate(270 100 100)"/>
      <path d="M95,70 C 97,72 103,72 105,70" transform="rotate(270 100 100)"/>
      
      <path d="M100,56 C 100,56 100,83 100,83" transform="rotate(300 100 100)"/>
      <path d="M100,83 C 96,83 95,80 95,78 L 95,58" transform="rotate(300 100 100)"/>
      <path d="M100,83 C 104,83 105,80 105,78 L 105,58" transform="rotate(300 100 100)"/>
      <path d="M95,70 C 97,72 103,72 105,70" transform="rotate(300 100 100)"/>
      
      <path d="M100,56 C 100,56 100,83 100,83" transform="rotate(330 100 100)"/>
      <path d="M100,83 C 96,83 95,80 95,78 L 95,58" transform="rotate(330 100 100)"/>
      <path d="M100,83 C 104,83 105,80 105,78 L 105,58" transform="rotate(330 100 100)"/>
      <path d="M95,70 C 97,72 103,72 105,70" transform="rotate(330 100 100)"/>
    </g>
    
    <!-- Inner 8-petal lotus -->
    <circle cx="100" cy="100" r="55"/>
    <g>
      <path d="M100,45 C 90,60 110,60 100,45 Z" transform="rotate(0 100 100)"/>
      <path d="M100,47 C 95,55 105,55 100,47" transform="rotate(0 100 100)"/>
      <circle cx="96" cy="62" r="1" transform="rotate(0 100 100)"/>
      <circle cx="104" cy="62" r="1" transform="rotate(0 100 100)"/>
      
      <path d="M100,45 C 90,60 110,60 100,45 Z" transform="rotate(45 100 100)"/>
      <path d="M100,47 C 95,55 105,55 100,47" transform="rotate(45 100 100)"/>
      <circle cx="96" cy="62" r="1" transform="rotate(45 100 100)"/>
      <circle cx="104" cy="62" r="1" transform="rotate(45 100 100)"/>
      
      <path d="M100,45 C 90,60 110,60 100,45 Z" transform="rotate(90 100 100)"/>
      <path d="M100,47 C 95,55 105,55 100,47" transform="rotate(90 100 100)"/>
      <circle cx="96" cy="62" r="1" transform="rotate(90 100 100)"/>
      <circle cx="104" cy="62" r="1" transform="rotate(90 100 100)"/>
      
      <path d="M100,45 C 90,60 110,60 100,45 Z" transform="rotate(135 100 100)"/>
      <path d="M100,47 C 95,55 105,55 100,47" transform="rotate(135 100 100)"/>
      <circle cx="96" cy="62" r="1" transform="rotate(135 100 100)"/>
      <circle cx="104" cy="62" r="1" transform="rotate(135 100 100)"/>
      
      <path d="M100,45 C 90,60 110,60 100,45 Z" transform="rotate(180 100 100)"/>
      <path d="M100,47 C 95,55 105,55 100,47" transform="rotate(180 100 100)"/>
      <circle cx="96" cy="62" r="1" transform="rotate(180 100 100)"/>
      <circle cx="104" cy="62" r="1" transform="rotate(180 100 100)"/>
      
      <path d="M100,45 C 90,60 110,60 100,45 Z" transform="rotate(225 100 100)"/>
      <path d="M100,47 C 95,55 105,55 100,47" transform="rotate(225 100 100)"/>
      <circle cx="96" cy="62" r="1" transform="rotate(225 100 100)"/>
      <circle cx="104" cy="62" r="1" transform="rotate(225 100 100)"/>
      
      <path d="M100,45 C 90,60 110,60 100,45 Z" transform="rotate(270 100 100)"/>
      <path d="M100,47 C 95,55 105,55 100,47" transform="rotate(270 100 100)"/>
      <circle cx="96" cy="62" r="1" transform="rotate(270 100 100)"/>
      <circle cx="104" cy="62" r="1" transform="rotate(270 100 100)"/>
      
      <path d="M100,45 C 90,60 110,60 100,45 Z" transform="rotate(315 100 100)"/>
      <path d="M100,47 C 95,55 105,55 100,47" transform="rotate(315 100 100)"/>
      <circle cx="96" cy="62" r="1" transform="rotate(315 100 100)"/>
      <circle cx="104" cy="62" r="1" transform="rotate(315 100 100)"/>
    </g>
    
    <!-- Central star and details -->
    <circle cx="100" cy="100" r="28"/>
    <circle cx="100" cy="100" r="22"/>
    
    <!-- 12 star connections -->
    <line x1="108.66" y1="105" x2="115.91" y2="108.88"/>
    <line x1="112.99" y1="97.5" x2="120.24" y2="94.45"/>
    <line x1="112.99" y1="102.5" x2="120.24" y2="105.55"/>
    <line x1="108.66" y1="95" x2="115.91" y2="91.12"/>
    <line x1="100" y1="93" x2="100" y2="85"/>
    <line x1="91.34" y1="95" x2="84.09" y2="91.12"/>
    <line x1="87.01" y1="97.5" x2="79.76" y2="94.45"/>
    <line x1="87.01" y1="102.5" x2="79.76" y2="105.55"/>
    <line x1="91.34" y1="105" x2="84.09" y2="108.88"/>
    <line x1="100" y1="107" x2="100" y2="115"/>
    <line x1="108.66" y1="105" x2="115.91" y2="108.88"/>
    <line x1="112.99" y1="102.5" x2="120.24" y2="105.55"/>
    
    <circle cx="100" cy="100" r="15"/>
    
    <!-- 16 inner dots -->
    <circle cx="111" cy="100" r="0.7"/>
    <circle cx="107.78" cy="107.78" r="0.7"/>
    <circle cx="100" cy="111" r="0.7"/>
    <circle cx="92.22" cy="107.78" r="0.7"/>
    <circle cx="89" cy="100" r="0.7"/>
    <circle cx="92.22" cy="92.22" r="0.7"/>
    <circle cx="100" cy="89" r="0.7"/>
    <circle cx="107.78" cy="92.22" r="0.7"/>
    <circle cx="110.8" cy="103.35" r="0.7"/>
    <circle cx="103.35" cy="110.8" r="0.7"/>
    <circle cx="96.65" cy="110.8" r="0.7"/>
    <circle cx="89.2" cy="103.35" r="0.7"/>
    <circle cx="89.2" cy="96.65" r="0.7"/>
    <circle cx="96.65" cy="89.2" r="0.7"/>
    <circle cx="103.35" cy="89.2" r="0.7"/>
    <circle cx="110.8" cy="96.65" r="0.7"/>
  </g>
</svg>
