<?xml version="1.0" encoding="UTF-8"?>
<svg xmlns="http://www.w3.org/2000/svg" viewBox="0 0 32 32" width="32" height="32">
  <defs>
    <linearGradient id="favicon-bg" x1="0%" y1="0%" x2="100%" y2="100%">
      <stop offset="0%" style="stop-color:#6D28D9;stop-opacity:1" />
      <stop offset="100%" style="stop-color:#06B6D4;stop-opacity:1" />
    </linearGradient>
  </defs>
  
  <!-- Background -->
  <rect width="32" height="32" fill="url(#favicon-bg)" rx="6"/>
  
  <!-- Simplified Chakra -->
  <g stroke="#FCD34D" fill="none" strokeWidth="0.8">
    <!-- Outer circle -->
    <circle cx="16" cy="16" r="13"/>
    
    <!-- 8 Main spokes (simplified from 12) -->
    <line x1="16" y1="8" x2="16" y2="3" strokeWidth="1"/>
    <line x1="16" y1="8" x2="16" y2="3" transform="rotate(45 16 16)" strokeWidth="1"/>
    <line x1="16" y1="8" x2="16" y2="3" transform="rotate(90 16 16)" strokeWidth="1"/>
    <line x1="16" y1="8" x2="16" y2="3" transform="rotate(135 16 16)" strokeWidth="1"/>
    <line x1="16" y1="8" x2="16" y2="3" transform="rotate(180 16 16)" strokeWidth="1"/>
    <line x1="16" y1="8" x2="16" y2="3" transform="rotate(225 16 16)" strokeWidth="1"/>
    <line x1="16" y1="8" x2="16" y2="3" transform="rotate(270 16 16)" strokeWidth="1"/>
    <line x1="16" y1="8" x2="16" y2="3" transform="rotate(315 16 16)" strokeWidth="1"/>
    
    <!-- Inner circle -->
    <circle cx="16" cy="16" r="8" strokeWidth="1"/>
    
    <!-- Center hub -->
    <circle cx="16" cy="16" r="4" strokeWidth="1"/>
    
    <!-- Center dot -->
    <circle cx="16" cy="16" r="1.5" fill="#FCD34D"/>
  </g>
</svg>
